<?xml version="1.0" encoding="UTF-8" standalone="no"?>
<!-- Created with Inkscape (http://www.inkscape.org/) -->

<svg
   xmlns:dc="http://purl.org/dc/elements/1.1/"
   xmlns:cc="http://creativecommons.org/ns#"
   xmlns:rdf="http://www.w3.org/1999/02/22-rdf-syntax-ns#"
   xmlns:svg="http://www.w3.org/2000/svg"
   xmlns="http://www.w3.org/2000/svg"
   xmlns:sodipodi="http://sodipodi.sourceforge.net/DTD/sodipodi-0.dtd"
   xmlns:inkscape="http://www.inkscape.org/namespaces/inkscape"
   width="744.09448819"
   height="1052.3622047"
   id="svg2"
   version="1.1"
   inkscape:version="0.48.2 r9819"
   sodipodi:docname="lebron.svg"
   inkscape:export-filename="/home/substack/media/vector/lebron.png"
   inkscape:export-xdpi="111.13242"
   inkscape:export-ydpi="111.13242">
  <defs
     id="defs4" />
  <sodipodi:namedview
     id="base"
     pagecolor="#ffffff"
     bordercolor="#666666"
     borderopacity="1.0"
     inkscape:pageopacity="0.0"
     inkscape:pageshadow="2"
     inkscape:zoom="0.61485144"
     inkscape:cx="428.5293"
     inkscape:cy="484.03063"
     inkscape:document-units="px"
     inkscape:current-layer="layer1"
     showgrid="false"
     inkscape:window-width="1364"
     inkscape:window-height="766"
     inkscape:window-x="0"
     inkscape:window-y="0"
     inkscape:window-maximized="0" />
  <metadata
     id="metadata7">
    <rdf:RDF>
      <cc:Work
         rdf:about="">
        <dc:format>image/svg+xml</dc:format>
        <dc:type
           rdf:resource="http://purl.org/dc/dcmitype/StillImage" />
        <dc:title></dc:title>
      </cc:Work>
    </rdf:RDF>
  </metadata>
  <g
     inkscape:label="Layer 1"
     inkscape:groupmode="layer"
     id="layer1">
    <path
       sodipodi:type="arc"
       style="color:#000000;fill:#ffffff;fill-opacity:1;stroke:#ffffff;stroke-width:1.9659785;stroke-linecap:butt;stroke-linejoin:round;stroke-miterlimit:4;stroke-opacity:1;stroke-dasharray:none;stroke-dashoffset:0;marker:none;visibility:visible;display:inline;overflow:visible;enable-background:accumulate"
       id="path5087"
       sodipodi:cx="426.52579"
       sodipodi:cy="522.55939"
       sodipodi:rx="35.374397"
       sodipodi:ry="35.374397"
       d="m 461.90018,522.55939 a 35.374397,35.374397 0 1 1 -70.74879,0 35.374397,35.374397 0 1 1 70.74879,0 z"
       transform="matrix(2.5903183,0,0,2.5903183,-748.33921,-940.43762)" />
    <path
       transform="matrix(2.5903183,0,0,2.5903183,-748.33921,-940.43762)"
       d="m 460.90097,522.55939 a 34.375183,34.375183 0 1 1 -68.75037,0 34.375183,34.375183 0 1 1 68.75037,0 z"
       sodipodi:ry="34.375183"
       sodipodi:rx="34.375183"
       sodipodi:cy="522.55939"
       sodipodi:cx="426.52579"
       id="path5085"
       style="color:#000000;fill:#ffffff;fill-opacity:1;stroke:#1254a2;stroke-width:1.9659785;stroke-linecap:butt;stroke-linejoin:round;stroke-miterlimit:4;stroke-opacity:1;stroke-dasharray:none;stroke-dashoffset:0;marker:none;visibility:visible;display:inline;overflow:visible;enable-background:accumulate"
       sodipodi:type="arc" />
    <rect
       style="color:#000000;fill:#1254a2;fill-opacity:1;stroke:#ffffff;stroke-width:5.09251022;stroke-linecap:butt;stroke-linejoin:round;stroke-miterlimit:4;stroke-opacity:1;stroke-dasharray:none;stroke-dashoffset:0;marker:none;visibility:visible;display:inline;overflow:visible;enable-background:accumulate"
       id="rect3790"
       width="238.02982"
       height="259.09442"
       x="238.3053"
       y="424.74313" />
    <g
       id="g5223"
       transform="matrix(1.5743752,0,0,1.5743752,-167.46456,-619.84685)">
      <path
         id="path5204"
         d="m 342.53125,736.125 -7.90625,-4.15625 -8.21875,4 16.125,0.15625 z"
         style="fill:#0f4687;fill-opacity:1;stroke:#ffffff;stroke-width:1px;stroke-linecap:butt;stroke-linejoin:miter;stroke-opacity:0"
         inkscape:connector-curvature="0" />
      <path
         id="path5202"
         d="m 374,736.40625 -16.6875,7.46875 18.375,9.625 0,-17.0625 L 374,736.4063 z"
         style="fill:#0f4687;fill-opacity:1;stroke:#ffffff;stroke-width:1px;stroke-linecap:butt;stroke-linejoin:miter;stroke-opacity:0"
         inkscape:connector-curvature="0" />
      <path
         id="path5200"
         d="m 357.3125,743.875 0,-3.65625 -7.6875,-4.03125 -7.09375,-0.0625 14.78125,7.75 z"
         style="fill:#0f4687;fill-opacity:1;stroke:#ffffff;stroke-width:1px;stroke-linecap:butt;stroke-linejoin:miter;stroke-opacity:0"
         inkscape:connector-curvature="0" />
      <path
         id="path5198"
         d="m 291.125,735.625 0,17.46875 18.78125,-9.125 -17.875,-8.34375 -0.90625,0 z"
         style="fill:#0f4687;fill-opacity:1;stroke:#ffffff;stroke-width:1px;stroke-linecap:butt;stroke-linejoin:miter;stroke-opacity:0"
         inkscape:connector-curvature="0" />
      <path
         id="path5155"
         d="m 319,735.90625 -9.09375,4.40625 0,3.65625 16.5,-8 L 319,735.90625 z"
         style="fill:#0f4687;fill-opacity:1;stroke:#ffffff;stroke-width:1px;stroke-linecap:butt;stroke-linejoin:miter;stroke-opacity:0"
         inkscape:connector-curvature="0" />
      <path
         id="path5151"
         d="m 333.8125,714.0625 -42.6875,21.15625 18.78125,8.75 24.71875,-12 22.6875,11.90625 17.5625,-7.84375 -41.0625,-21.96875 z"
         style="fill:#0c3668;fill-opacity:1;stroke:#ffffff;stroke-width:1px;stroke-linecap:butt;stroke-linejoin:miter;stroke-opacity:0"
         inkscape:connector-curvature="0" />
      <path
         inkscape:connector-curvature="0"
         id="path5153"
         d="m 333.82047,823.0385 c 1.62641,-0.81321 41.47344,-21.54993 41.47344,-21.54993 l 0,-6.91223 -41.88004,21.95652 -42.28664,-21.54992 0,6.91224 z"
         style="fill:#ffffff;fill-opacity:1;stroke:#ffffff;stroke-width:1px;stroke-linecap:butt;stroke-linejoin:miter;stroke-opacity:0" />
      <path
         sodipodi:nodetypes="ccccccc"
         inkscape:connector-curvature="0"
         id="path5159"
         d="m 375.28125,778.60001 -41.875,20.86874 -42.02502,-21.55 -0.28125,17.125 42.30627,21.4875 41.875,-21.68124 z"
         style="fill:#1973dd;fill-opacity:1;stroke:#ffffff;stroke-width:1px;stroke-linecap:butt;stroke-linejoin:miter;stroke-opacity:0" />
      <path
         id="path5178"
         d="m 334.625,731.96875 -24.71875,12 L 333,754.71875 357.3125,743.875 334.625,731.96875 z"
         style="fill:#1254a2;fill-opacity:1;stroke:#ffffff;stroke-width:1px;stroke-linecap:butt;stroke-linejoin:miter;stroke-opacity:0"
         inkscape:connector-curvature="0" />
      <path
         sodipodi:nodetypes="cccccccccccc"
         inkscape:connector-curvature="0"
         id="path5146"
         d="m 334.76978,736.58674 -25.69816,12.34359 -0.47442,42.11268 17.92281,-9.93663 0,-19.1616 7.53813,-5.0869 1.44964,0 7.51177,5.0869 0,19.1616 17.94916,9.93663 -0.31288,-40.98527 z"
         style="fill:#ffffff;fill-opacity:1;stroke:none" />
    </g>
    <rect
       style="color:#000000;fill:none;stroke:#ffffff;stroke-width:5.09251022;stroke-linecap:butt;stroke-linejoin:round;stroke-miterlimit:4;stroke-opacity:1;stroke-dasharray:none;stroke-dashoffset:0;marker:none;visibility:visible;display:inline;overflow:visible;enable-background:accumulate"
       id="rect3788"
       width="181.15546"
       height="259.10071"
       x="266.97382"
       y="424.74313" />
    <rect
       style="color:#000000;fill:#ffffff;stroke:none;stroke-width:4;marker:none;visibility:visible;display:inline;overflow:visible;enable-background:accumulate"
       id="rect3792"
       width="10.532293"
       height="36.863026"
       x="449.1825"
       y="618.53723" />
    <rect
       y="557.44989"
       x="449.1825"
       height="28.437191"
       width="10.532293"
       id="rect3794"
       style="color:#000000;fill:#ffffff;stroke:none;stroke-width:4;marker:none;visibility:visible;display:inline;overflow:visible;enable-background:accumulate" />
    <rect
       style="color:#000000;fill:#ffffff;stroke:none;stroke-width:4;marker:none;visibility:visible;display:inline;overflow:visible;enable-background:accumulate"
       id="rect3796"
       width="10.532293"
       height="28.437191"
       x="449.1825"
       y="491.09641" />
    <rect
       y="618.53723"
       x="254.33505"
       height="36.863026"
       width="10.532293"
       id="rect3798"
       style="color:#000000;fill:#ffffff;stroke:none;stroke-width:4;marker:none;visibility:visible;display:inline;overflow:visible;enable-background:accumulate" />
    <rect
       style="color:#000000;fill:#ffffff;stroke:none;stroke-width:4;marker:none;visibility:visible;display:inline;overflow:visible;enable-background:accumulate"
       id="rect3800"
       width="10.532293"
       height="28.437191"
       x="254.33505"
       y="557.44989" />
    <rect
       y="491.09641"
       x="254.33505"
       height="28.437191"
       width="10.532293"
       id="rect3802"
       style="color:#000000;fill:#ffffff;stroke:none;stroke-width:4;marker:none;visibility:visible;display:inline;overflow:visible;enable-background:accumulate" />
    <path
       sodipodi:type="arc"
       style="color:#000000;fill:none;stroke:#ffffff;stroke-width:1.9659785;stroke-linecap:butt;stroke-linejoin:round;stroke-miterlimit:4;stroke-opacity:1;stroke-dasharray:none;stroke-dashoffset:0;marker:none;visibility:visible;display:inline;overflow:visible;enable-background:accumulate"
       id="path3018"
       sodipodi:cx="426.52579"
       sodipodi:cy="522.55939"
       sodipodi:rx="35.374397"
       sodipodi:ry="35.374397"
       d="m 461.90018,522.55939 a 35.374397,35.374397 0 1 1 -70.74879,0 35.374397,35.374397 0 1 1 70.74879,0 z"
       transform="matrix(2.5903183,0,0,2.5903183,-748.33921,-940.43762)" />
    <path
       style="fill:#0c3668;fill-opacity:1;stroke:#ffffff;stroke-width:0.54063022px;stroke-linecap:butt;stroke-linejoin:miter;stroke-opacity:0"
       d="m 286.04804,359.13471 c -6.08442,-1.55066 -17.41551,2.028 -23.30107,7.91357 -0.64847,0.64847 0.0993,2.97825 -0.43964,3.51714 -0.40547,0.40545 -0.0612,2.51522 0.43964,3.51714 0.59455,1.18912 0.72438,2.76769 1.31892,3.95679 3.29407,6.58815 14.04067,13.91273 21.10288,16.26679 5.16999,1.72333 30.0545,4.23763 33.85249,0.43964 0.60037,-0.60036 2.91679,-0.27892 3.51715,-0.87927 1.02288,-1.0229 8.49122,-0.57767 10.11179,-2.19822 0.86095,-0.86097 13.30149,-2.03451 15.38751,-3.07751 1.17236,-0.58619 3.22402,0.5862 4.39639,0 1.74006,-0.87002 3.86257,0.17796 5.71536,-0.43964 8.7945,-2.93149 27.19696,4.39643 36.93004,4.39643 11.90917,0 26.20253,-4.52825 35.61107,-9.2325 1.40753,-0.70376 2.07913,-3.23779 3.51716,-3.95679 3.68746,-1.84373 6.41155,-5.09262 8.35317,-7.03429 1.97983,-1.9798 2.63787,-5.48728 2.63787,-5.27571 0,0.43102 -0.51494,-0.51496 -0.87929,-0.87929 -1.22291,-1.22292 -4.33021,-1.72547 -6.15497,-2.63785 -1.9419,-0.97095 -22.84264,-2.63786 -26.37862,-2.63786 -7.36961,0 -20.15739,-0.69257 -25.93891,2.19821 -0.46124,0.23062 -1.84728,-0.3509 -2.1982,0 -1.31628,1.31627 -4.31996,1.2807 -6.15497,2.19822 -1.57728,0.78861 -4.93882,1.86127 -6.15505,3.0775 -0.51535,0.51534 -23.40985,3.0775 -25.49931,3.0775 -13.587,0 -27.96204,-2.3305 -39.1282,-7.91357 -3.09278,-1.54639 -9.32283,-1.40928 -11.43071,-3.51715 -0.35451,-0.35452 -7.18126,-0.46904 -9.2325,-0.87928 z"
       id="path5390-6"
       inkscape:connector-curvature="0" />
    <g
       id="g4193"
       transform="matrix(2.3975488,0,0,2.3975488,-443.58541,-992.69725)">
      <path
         style="fill:#1254a2;fill-opacity:1;stroke:#ffffff;stroke-width:1px;stroke-linecap:butt;stroke-linejoin:miter;stroke-opacity:0"
         d="m 354.78886,573.51223 c 0.25118,-0.0759 0.89902,0.1879 0.31994,0.1825 -0.85646,-0.31889 0.50277,-0.085 0.76626,-0.0108 0.79393,0.23936 1.13254,1.17413 1.82227,1.61164 0.72922,0.57932 0.84254,1.59401 1.0432,2.44431 0.23726,1.53423 0.41196,3.14146 0.0277,4.66552 -0.36885,0.49974 -0.13855,1.11392 -0.28389,1.69474 -0.26676,1.4933 -0.94448,2.88269 -1.75004,4.15583 -0.46229,0.73845 -1.15848,1.33062 -2.01608,1.53995 -0.93495,0.3099 -1.91567,0.83812 -2.92559,0.60235 -0.5584,-0.37061 -0.22293,-1.28836 -0.26677,-1.87928 0.0897,-1.02506 0.14302,-2.07826 -0.18623,-3.06971 -0.16673,-0.66004 -0.29294,-1.33474 -0.28839,-2.01793"
         id="path4112"
         inkscape:connector-curvature="0" />
      <path
         inkscape:connector-curvature="0"
         id="path4081"
         d="m 313.96226,574.51852 c -2.02346,0.3374 -2.73135,2.56543 -2.73135,5.75022 0,0.55179 0.0641,2.07674 0.28751,2.30009 0.0815,0.0815 0.43127,0.78469 0.43127,1.00629 0,1.10799 0.30056,4.03821 1.58131,5.31896 0.90657,0.90657 2.58993,1.43755 3.45013,1.43755 0.014,0 0.14376,0.98214 0.14376,1.15005 0,2.09434 0.50101,6.39499 1.86882,7.7628 0.33543,0.33543 0.81462,0.52711 1.15005,0.86254 0.0355,0.0355 0.32032,0.5422 0.43126,0.43126 0.0284,-0.0284 -1.13614,-3.39451 -1.43755,-4.60018 -0.17788,-0.71152 -0.14376,-1.70511 -0.14376,-2.30009 0,-1.89837 -0.6987,-4.27251 -1.43755,-5.75022 -0.18844,-0.37687 0.12218,-0.88411 -0.14376,-1.15005 -0.74058,-0.74058 -2.68876,-0.67618 -3.73765,-1.72506 -0.20366,-0.20366 -0.44025,-0.88051 -0.57502,-1.15005 -0.27365,-0.54729 -0.66259,-0.98149 -0.86253,-1.58131 -0.65886,-1.97657 -0.035,-5.14016 1.15004,-6.32525 0.15167,-0.15167 0.40258,-1.15015 0.57502,-1.43755 z"
         style="fill:#1254a2;fill-opacity:1;stroke:#ffffff;stroke-width:1px;stroke-linecap:butt;stroke-linejoin:miter;stroke-opacity:0" />
      <path
         inkscape:connector-curvature="0"
         id="path4002"
         d="m 320.6059,599.00064 c 0.29289,1.04187 -1.01651,6.52143 -1.01651,9.75845 0,0.60145 0,1.43088 0,1.62641 0,0.0958 0.29914,0.2033 0.20331,0.2033 -0.718,0 -5.89012,-0.19768 -4.67593,1.01651 2.42702,2.42702 3.13604,6.79546 5.28583,8.94525 1.0621,1.0621 3.53256,1.90615 4.47262,2.84621 1.26708,1.26708 3.55213,2.53562 5.28583,4.26933 1.7823,1.78229 2.64209,3.86189 4.26933,5.48913 0.15153,0.15153 -0.011,0.6099 0.2033,0.6099 0.29199,0 0.6535,-1.2634 0.8132,-1.42311 1.72598,-1.72597 4.18027,-3.97696 5.89574,-5.69243 1.05556,-1.05556 2.711,-1.8978 4.06602,-3.25282 0.58953,-0.58953 3.06129,-1.43488 4.06602,-2.43961 0.67823,-0.67823 1.31809,-2.1313 2.23631,-3.04952 0.54814,-0.54813 3.04952,-6.90422 3.04952,-7.11554 0,-0.34259 0.45323,-1.82971 0.60991,-1.82971 0.0593,0 -1.50587,0.73045 -2.23632,0 -0.98348,-0.98348 -1.42311,-2.33798 -1.42311,-4.47262 0,-0.52489 -0.4066,-1.15791 -0.4066,-1.62641 0,-1.60488 -0.2033,-3.45618 -0.2033,-5.28583 0,-1.2434 0.4066,-1.48617 0.4066,-2.64292 0,-0.33883 0,-1.35534 0,-1.0165 0,0.1944 -7.59768,2.39703 -8.94525,2.84621 -4.64592,1.54865 -13.27136,2.42542 -18.0938,1.21981 -0.86519,-0.2163 -3.76369,-0.70893 -3.86272,-0.6099 -0.48939,0.48939 -0.43113,0.54859 0,1.62641 z"
         style="fill:#ffffff;fill-opacity:1;stroke:#ffffff;stroke-width:1px;stroke-linecap:butt;stroke-linejoin:miter;stroke-opacity:0" />
      <path
         sodipodi:nodetypes="cccccccsssscccccccsccsccccccccccccc"
         inkscape:connector-curvature="0"
         id="path3863"
         d="m 333.15625,552.4375 c -1.80876,0.0474 -3.57946,0.3172 -5.125,0.875 -10.11227,3.59631 -12.36042,8.34666 -11.375,19.625 0.0625,1.54474 0.0831,3.68147 0.0937,5.59375 l -0.21875,-1.84375 0,-0.0625 c -0.21584,-0.1888 -0.1439,-0.12984 -0.25,-0.21875 -0.16188,-0.1769 -0.34278,-0.37403 -0.96875,-1 -0.93853,-0.93854 -1.83769,-0.56857 -2.625,0.21875 -1.7666,1.76659 -0.625,6.7008 -0.625,8.9375 0,0.2912 0.62682,2.26692 1.21875,3.46875 0.60846,1.23539 2.40391,2.30179 3.875,1.71875 0.20357,2.82979 0.35563,5.18494 1.04374,7.73748 2.31244,3.81929 5.15043,8.0538 9.03752,10.63749 4.85179,4.61453 7.67344,3.8692 10.75617,3.6813 4.09953,-0.41711 8.78381,-6.04171 10.38129,-10.41254 2.02456,-3.82995 4.71869,-7.30089 5.03128,-11.58123 0.33001,0.13207 0.72356,0.0577 1.15625,-0.375 0.19419,-0.19418 0.98651,-0.17401 1.21875,-0.40625 0.13311,-0.13311 0.12608,-0.45367 0.40625,-0.59375 1.0686,-0.5343 1.37419,-2.10247 1.4375,-3.59375 0.33452,-0.96582 0.63002,-1.88002 0.75,-2 0.16771,-0.16771 -0.16771,-0.83228 0,-1 0.37817,-0.37816 0.41161,-1.51835 0.15625,-2.8125 0.0929,-1.97595 -0.64236,-4.16521 -2,-4.34375 -0.68757,-0.66694 -1.47571,-0.83753 -2.3125,-0.0312 l -0.125,1.46875 c -0.0227,0.0251 -0.10045,0.0995 -0.125,0.125 0.0571,-0.0513 0.0743,-0.0506 0.125,-0.0937 l 0,0.0937 c -0.0747,0.0907 -0.0645,0.0798 -0.28125,0.3125 -0.0513,-0.97253 -0.14164,-1.93858 -0.3125,-2.90625 -0.12659,-7.36567 -0.78425,-11.65217 -5.9375,-16.5 -2.99211,-2.91904 -8.97996,-4.86106 -14.40625,-4.71875 z"
         style="fill:#ffffff;fill-opacity:1;stroke:#ffffff;stroke-width:1px;stroke-linecap:butt;stroke-linejoin:miter;stroke-opacity:0" />
      <path
         sodipodi:nodetypes="ccccccccccc"
         inkscape:connector-curvature="0"
         id="path4131"
         d="m 316.1186,575.23729 c 3.15594,1.34231 0.77758,-5.87862 2.82969,-7.71593 0.98626,-4.68607 6.23218,-7.26795 10.18791,-7.38163 2.86507,-0.40179 6.71476,-0.31203 10.91697,-0.18364 4.41015,0.15202 8.93108,3.79011 10.41387,8.33408 1.84447,2.16666 0.60402,9.06054 3.1976,8.57044 1.31434,-4.03793 0.007,-8.67778 -1.64334,-12.45635 -2.21565,-4.63966 -7.20435,-6.59061 -11.46263,-8.85854 -5.36558,-2.3783 -11.91336,-1.35652 -16.44929,2.31086 -3.54432,1.41311 -5.66257,2.92882 -7.60487,9.31144 -0.9022,2.55756 -1.48149,5.47363 -0.38591,8.06927 z"
         style="fill:#1254a2;fill-opacity:1;stroke:#ffffff;stroke-width:1px;stroke-linecap:butt;stroke-linejoin:miter;stroke-opacity:0" />
      <path
         style="fill:#1d5ca7;fill-opacity:1;stroke:#ffffff;stroke-width:1.88319612px;stroke-linecap:butt;stroke-linejoin:miter;stroke-opacity:0"
         d="m 342.53125,598.46875 c -0.003,-0.0174 -0.0711,0.0298 -0.125,0.0937 0.0212,0.004 0.0414,-0.004 0.0625,0 0.009,-0.0218 0.0636,-0.0872 0.0625,-0.0937 z m -0.0625,0.0937 c -0.0495,0.1261 -0.23334,0.4514 -0.75,1.3125 -2.82801,4.71336 8.63678,3.76176 10.3125,5.4375 0.0299,0.0299 2.61026,-1.01661 2.96875,-1.375 0.51745,-0.51745 2.34777,-1.18346 1.09375,-2.4375 -0.35035,-0.35035 0.0514,-0.89292 -0.4375,-1.25 0.0359,0.19671 0.0799,0.38727 0.0937,0.59375 0.61091,3.54033 -3.53666,3.44175 -5.90625,3.125 -2.77803,-0.26681 -5.50867,-1.06323 -8.09375,-2.09375 l -0.1875,-0.21875 c 0.50207,-0.9377 1.07793,-1.9644 1.75,-2.90625 -0.27305,-0.0552 -0.54594,-0.12906 -0.84375,-0.1875 z m -0.0625,0 c -0.0447,-0.009 -0.0797,-0.0222 -0.125,-0.0312 -1.432,2.26783 -0.23529,0.45868 0.125,0.0312 z"
         transform="matrix(0.53101214,0,0,0.53101214,157.94276,258.98929)"
         id="path4129"
         inkscape:connector-curvature="0" />
      <path
         style="fill:#1254a2;fill-opacity:1;stroke:#ffffff;stroke-width:1.88319612px;stroke-linecap:butt;stroke-linejoin:miter;stroke-opacity:0"
         d="m 323.875,598.6875 c 0.64381,1.23638 0.54094,2.63726 -1.25,3.25 -1.24214,1.82502 -3.08066,3.54332 -5.53125,2.8125 0.73066,0.73064 2.74534,0.78591 3.53125,0 0.62443,-0.62445 4.92446,-4.51306 4.3125,-5.125 -0.35424,-0.35425 -0.69423,-0.66206 -1.0625,-0.9375 z m -15.4375,2.28125 c -0.54517,2.17569 4.60135,1.91385 6.75,4.0625 0.36208,0.36208 1.09392,-0.29265 1.59375,-0.34375 -2.00712,-0.33943 -3.72989,-1.65296 -5.5625,-2.3125 l -0.375,-0.34375 c -0.78644,-0.3611 -1.58494,-0.73397 -2.40625,-1.0625 z"
         transform="matrix(0.53101214,0,0,0.53101214,157.94276,258.98929)"
         id="path4114"
         inkscape:connector-curvature="0" />
      <path
         style="fill:#1254a2;fill-opacity:1;stroke:#ffffff;stroke-width:1px;stroke-linecap:butt;stroke-linejoin:miter;stroke-opacity:0"
         d="m 314.10026,575.62101 c -1.22098,-1.41115 0.59471,-3.49919 -0.27492,-4.86804 -0.46987,-1.8311 1.86296,-3.10988 0.90168,-4.88681 -0.36452,-1.84077 2.02847,-2.73755 1.60956,-4.67953 1.24459,-1.37632 2.45154,-2.73032 3.35419,-4.39082 1.18305,-1.97567 3.37271,-2.77169 5.52373,-3.18353 1.66988,-0.65424 3.42977,-0.76377 5.17847,-1.26244 1.79116,-0.0163 4.07366,-1.74801 5.46052,-0.10847 1.56522,-0.33693 3.26188,-0.0899 4.87864,0.12502 1.94079,0.17481 3.88148,0.78225 5.23222,2.26792 0.6295,0.79702 0.80245,1.89731 2.0872,1.67309 1.45716,0.85592 3.13706,1.46297 3.25282,3.45612 1.11556,1.00314 2.83779,1.64728 2.33719,3.4972 1.92335,2.24189 1.13701,5.36501 1.36336,8.0582 0.13216,2.59981 0.76851,5.23434 0.29005,7.82682 -1.16841,2.08744 -2.23421,-1.39422 -1.75429,-2.50823 -0.88312,-2.11147 -1.54816,-4.33203 -2.2927,-6.48005 0.0196,-2.0359 -1.03198,-3.84103 -1.60206,-5.75013 -1.14437,-0.98354 -2.60931,-1.93077 -3.73128,-3.13005 -1.53387,-1.19231 -3.67248,-1.3777 -5.24348,-2.54625 -1.75336,-0.047 -3.43412,-0.58222 -5.18179,-0.54711 -2.63081,0.16452 -5.31975,0.37154 -7.79413,1.33156 -2.34079,0.63443 -5.26281,0.15937 -7.0072,2.17963 -1.57675,1.36341 -3.0274,3.06072 -3.07683,5.25854 -0.73546,1.97313 -0.73359,4.09634 -0.16507,6.1169 0.26848,1.95584 0.83831,4.31704 -0.49966,6.00658 -1.42328,-0.19639 -2.12462,-2.31434 -2.84622,-3.45612 z"
         id="path3966"
         inkscape:connector-curvature="0" />
      <path
         inkscape:connector-curvature="0"
         id="path3868"
         d="m 326.09503,595.13792 c 1.95717,-2.78946 8.76424,-8.10976 14.23108,-2.64292 0.26654,0.26654 3.25714,2.63859 2.64292,3.25282 -0.47339,0.47338 -1.88029,-1.27038 -2.03302,-1.42311 -0.60143,-0.60143 -1.45533,-1.25203 -2.03301,-1.82971 -0.41227,-0.41227 -1.68492,-0.46512 -2.03301,-0.8132 -0.2033,-0.2033 -1.0165,0.2033 -1.21981,0 -1.45608,-1.45608 -7.93193,2.48218 -9.55515,3.45612 z"
         style="fill:#1254a2;fill-opacity:1;stroke:#ffffff;stroke-width:1px;stroke-linecap:butt;stroke-linejoin:miter;stroke-opacity:0" />
      <path
         inkscape:connector-curvature="0"
         id="path3870"
         d="m 328.53464,596.56102 c 1.25814,-0.28272 11.99477,-1.23826 11.99477,0 0,0.054 -2.58087,0.40661 -2.84621,0.40661 -2.92808,0 -6.14337,1.3965 -9.14856,-0.40661 z"
         style="fill:#1254a2;fill-opacity:1;stroke:#ffffff;stroke-width:1px;stroke-linecap:butt;stroke-linejoin:miter;stroke-opacity:0" />
      <path
         style="fill:#1254a2;fill-opacity:1;stroke:#ffffff;stroke-width:1.88319612px;stroke-linecap:butt;stroke-linejoin:miter;stroke-opacity:0"
         d="m 320.125,641.46875 c 1.02591,5.12958 4.84981,3.69354 6.875,5.71875 0.86188,0.86188 2.6197,1.08847 3.0625,1.53125 0.21429,0.21431 -2.6875,1.89407 -2.6875,2.6875 0,0.89333 1.79417,0 2.6875,0 0.91533,0 5.16751,0.58249 5.75,0 0.4466,-0.4466 1.47238,-1.18387 0.75,-1.90625 -0.0661,-0.0661 -1.79816,-0.88934 -1.53125,-1.15625 0.88414,-0.88414 3.80709,-1.08834 5,-2.28125 2.19926,-1.1389 5.13938,-3.29552 4.15625,-4.34375 0.003,-0.0106 -0.003,-0.0207 0,-0.0312 0.0193,-0.0752 0.0312,-0.14515 0.0312,-0.21875 0,-0.0407 -0.10092,0.0839 -0.25,0.28125 -0.44966,0.23574 -1.42789,1.17788 -1.625,1.375 -1.35831,1.35831 -3.32017,1.76946 -4.65625,2.4375 l 0.0937,0.1875 c -0.45099,-0.0609 -0.97873,-0.21375 -1.21875,-0.0937 -5.23781,2.6189 -15.37511,-4.03214 -16.4375,-4.1875 z"
         transform="matrix(0.53101214,0,0,0.53101214,157.94276,258.98929)"
         id="path3872"
         inkscape:connector-curvature="0" />
      <path
         style="fill:#1254a2;fill-opacity:1;stroke:#ffffff;stroke-width:1px;stroke-linecap:butt;stroke-linejoin:miter;stroke-opacity:0"
         d="m 317.86803,595.57219 c 0.59251,0.14924 0.87447,1.23179 0.16508,0.44559 -0.43324,-1.00521 0.86782,0.67958 0.81129,1.10505 0.10825,1.14814 0.91641,1.81164 2.03257,1.80929 0.56372,0.46127 0.2508,1.86829 1.4612,1.55831 0.71186,0.14732 -0.0962,2.04116 0.96645,1.07277 0.73834,-0.0885 0.79107,1.88623 1.73155,0.72487 1.21598,-0.095 0.40779,2.17884 1.95366,1.69198 0.93773,0.097 -0.36194,1.82993 0.95341,1.47659 1.01173,-0.20961 1.66033,1.07731 1.68616,1.75964 0.73005,0.0808 1.55028,0.4815 1.05288,1.32164 0.27712,0.79348 1.68814,1.5325 0.60961,2.41917 -0.93837,0.68485 -1.80387,-0.5382 -2.68256,-0.79412 -1.13488,-0.17604 -2.13702,-0.66152 -2.4159,-1.90033 -0.50355,-1.23121 -2.18953,-0.39224 -2.8901,-1.37834 0.008,-1.10395 -0.76596,-1.82496 -1.83518,-1.78218 -1.21645,-0.76371 -0.56296,-2.62715 -1.72026,-3.43493 -0.98066,-1.06489 -1.06954,-2.60247 -1.82321,-3.79798 -0.0209,-0.85205 0.24267,-1.50777 -0.0566,-2.29697"
         id="path3874"
         inkscape:connector-curvature="0" />
      <path
         inkscape:connector-curvature="0"
         id="path3876"
         d="m 339.91951,611.19871 c -0.27107,0 -0.55023,0.0657 -0.81321,0 -0.59072,-0.14769 0.61077,-2.1351 0.81321,-2.23632 1.03095,-0.51547 -0.4857,-0.53081 0.8132,-1.82971 0.17889,-0.17888 0.67994,-0.47663 0.81321,-0.6099 0.0958,-0.0958 0.4066,0.13553 0.4066,0 0,-0.23625 -0.38936,-0.64439 -0.2033,-1.01651 0.33952,-0.67904 0.93716,-0.53055 1.42311,-1.0165 0.044,-0.044 0.41383,-1.43034 0.8132,-1.82971 0.10165,-0.10165 0.50825,0.10165 0.6099,0 0.22792,-0.22792 -0.1499,-1.1233 0,-1.42311 0.47289,-0.94577 0.84188,-0.84188 1.42311,-1.42311 0.29429,-0.29428 0.27584,-1.29234 0.60991,-1.62641 0.22282,-0.22282 1.1899,-0.2033 1.0165,-0.2033 -0.0958,0 0.11758,-0.16044 0.2033,-0.2033 0.41563,-0.20782 0.31692,-0.72352 0.60991,-1.01651 0.16941,-0.16941 0.84708,0.16942 1.0165,0 0.26779,-0.26778 1.12405,-1.20801 1.62641,-0.2033 0.1301,0.26019 -0.46915,2.84622 -1.0165,2.84622 -0.0963,0 0.19543,0.61777 -0.20331,1.01651 -0.20418,0.20418 -1.0165,0.52636 -1.0165,1.0165 0,1.35767 -0.33544,1.14864 -1.21981,2.03301 -0.34967,0.34967 0.46124,0.96187 0,1.42311 -0.23186,0.23186 -0.98795,0.58135 -1.21981,0.81321 -0.16941,0.16941 0.16942,0.84708 0,1.0165 -0.24841,0.24842 -0.84742,0.44082 -1.0165,0.6099 -0.43209,0.43209 -0.50473,1.41607 -0.81321,2.03302 -0.1474,0.2948 -0.81887,0.41227 -1.0165,0.6099 -0.94732,0.94732 -1.8318,2.31638 -3.65942,1.21981 z"
         style="fill:#1254a2;fill-opacity:1;stroke:#ffffff;stroke-width:1px;stroke-linecap:butt;stroke-linejoin:miter;stroke-opacity:0" />
      <path
         inkscape:connector-curvature="0"
         id="path3884"
         d="m 331.99076,581.72004 c -0.22532,-2.12482 0.14786,1.03742 -0.2033,1.82971 -0.66604,0.66605 -3.20619,3.14277 -2.43961,4.67593 0.77459,1.54918 6.63604,2.51251 8.13204,1.0165 0.10166,-0.10165 0.50826,0.10165 0.60991,0 0.44048,-0.44048 1.38922,-0.37272 1.82971,-0.8132 1.33518,-1.33518 -0.66037,-3.91319 -1.42311,-4.67593 -0.5074,-0.5074 -0.84493,-1.25153 -1.42311,-1.82971 -0.24649,-0.24649 0.005,-1.21512 -0.2033,-1.42311 -0.0678,-0.0678 -0.29914,-0.2033 -0.2033,-0.2033 0.2149,0 -0.0173,2.21899 0.6099,2.84622 0.2033,0.2033 0.2033,0.6099 0.40661,0.8132 0.72158,0.72158 1.11063,-0.21834 1.82971,1.21981 1.11606,2.23212 -4.42205,5.33641 -6.50564,3.25282 -0.83977,-0.83977 -2.43961,1.04461 -2.43961,-2.03301 0,-0.92118 2.03301,-1.85068 2.03301,-2.64292 0,-0.39809 0.33031,-2.84847 0,-3.5091"
         style="fill:#1254a2;fill-opacity:1;stroke:#ffffff;stroke-width:1px;stroke-linecap:butt;stroke-linejoin:miter;stroke-opacity:0"
         sodipodi:nodetypes="ccscsssscsccssssc" />
      <path
         inkscape:connector-curvature="0"
         id="path3905"
         d="m 320.45323,574.04523 c 0.2033,-0.27107 0.33884,-1.01651 0.6099,-0.81321 0.27107,0.2033 -0.84949,1.0528 -0.6099,0.81321 0.95808,-0.95808 1.23495,-1.43826 1.82971,-2.03301 0.23718,-0.23719 0.77932,-0.16942 1.01651,-0.40661 0.96948,-0.96948 7.52214,0.33546 7.52214,0.60991 0,0.19155 -0.65108,1.66758 -0.81321,1.82971 -0.19082,0.19082 -0.51051,-0.15361 -0.6099,-0.2033 -0.40668,-0.20334 -1.90347,0.16642 -2.64291,-0.2033 -1.29353,-0.64677 -4.6263,0.74181 -6.30234,0.4066 z"
         style="fill:#1254a2;fill-opacity:1;stroke:#ffffff;stroke-width:1px;stroke-linecap:butt;stroke-linejoin:miter;stroke-opacity:0" />
      <path
         inkscape:connector-curvature="0"
         id="path3907"
         d="m 337.68319,573.7913 c 0.4299,-0.3257 -0.24935,-0.76715 0.81321,-1.82971 0.13553,-0.13553 0.67767,0.13553 0.8132,0 0.0612,-0.0612 4.58708,-0.6099 4.87923,-0.6099 0.1928,0 1.09704,-0.12278 1.21981,0 0.34045,0.34045 1.26062,0.44741 1.62641,0.8132 0.30493,0.30494 1.4965,2.16292 1.42311,2.23631 -0.10952,0.10951 -2.38694,-1.2198 -2.64292,-1.2198 -3.13054,0 -5.29668,0.6099 -8.13205,0.6099 z"
         style="fill:#1254a2;fill-opacity:1;stroke:#ffffff;stroke-width:1px;stroke-linecap:butt;stroke-linejoin:miter;stroke-opacity:0" />
      <path
         sodipodi:nodetypes="ccccccccccc"
         inkscape:connector-curvature="0"
         id="path3981"
         d="m 315.72667,576.23091 c -1.20783,-3.30039 0.67429,-6.72735 0.67104,-10.09386 1.14141,-5.85893 5.6532,-11.29891 11.81503,-12.05806 5.23,-0.59647 11.13768,-1.65841 16.02698,0.75533 4.72183,3.2969 9.80931,7.47493 10.43568,13.6266 0.44653,3.39617 -0.0605,9.35705 -1.33288,11.05837 -0.89572,-4.96753 -1.4211,-10.4716 -4.07017,-14.18192 -1.87618,-4.8399 -9.58953,-5.92137 -14.51068,-5.78511 -5.86989,0.0222 -11.09664,0.36917 -14.83351,4.41641 -2.72074,4.76753 -2.74187,8.139 -2.04863,13.66696 -1.59278,3.12025 -3.34506,-1.14775 -1.74626,-2.62453"
         style="fill:#ffffff;fill-opacity:1;stroke:#ffffff;stroke-width:1px;stroke-linecap:butt;stroke-linejoin:miter;stroke-opacity:0" />
      <path
         inkscape:connector-curvature="0"
         id="path4017"
         d="m 329.34785,609.9789 c 0.27107,0.27107 1.08427,0.54214 0.8132,0.8132 -0.27106,0.27107 -1.19655,-0.8132 -0.8132,-0.8132 4.29409,0 0.5129,0.5129 1.0165,1.0165 0.30533,0.30533 1.24568,0.43248 1.62641,0.81321 0.90205,0.90204 8.37222,0.77634 9.14856,0 0.25479,-0.25479 1.73779,-1.31172 1.4231,-1.62641 -0.16941,-0.16942 -0.84708,0.16942 -1.0165,0 -0.10715,-0.10715 -0.29946,-0.31045 -0.4066,-0.2033 -0.88788,0.88788 -3.71367,1.27405 -4.26933,1.82971 -1.12634,1.12634 -6.66747,-1.65878 -7.52214,-1.82971 z"
         style="fill:#1254a2;fill-opacity:1;stroke:#ffffff;stroke-width:1px;stroke-linecap:butt;stroke-linejoin:miter;stroke-opacity:0" />
      <path
         inkscape:connector-curvature="0"
         id="path4043"
         d="m 326.12333,575.55132 c -1.88664,0.77673 -1.5901,4.15676 0.70478,3.93661 2.43615,-0.16935 2.0742,-3.54087 -0.1237,-3.82275 l -0.28828,-0.0709 -0.2928,-0.043 z"
         style="fill:#1254a2;fill-opacity:1;stroke:#ffffff;stroke-width:1.14660192px;stroke-linecap:butt;stroke-linejoin:miter;stroke-opacity:0" />
      <path
         inkscape:connector-curvature="0"
         id="path4045"
         d="m 342.60462,575.73073 c -2.30748,0.77763 -0.43321,4.21745 1.54355,3.48835 2.15998,-0.87673 0.46193,-4.40655 -1.54355,-3.48835 z"
         style="fill:#1254a2;fill-opacity:1;stroke:#ffffff;stroke-width:1.17453194px;stroke-linecap:butt;stroke-linejoin:miter;stroke-opacity:0" />
      <path
         style="fill:#1254a2;fill-opacity:1;stroke:#ffffff;stroke-width:1px;stroke-linecap:butt;stroke-linejoin:miter;stroke-opacity:0"
         d="m 333.83547,558.65837 c 0.32169,0.57909 1.03902,0.13467 1.54606,0.20302 0.81851,-0.0427 1.43613,-0.16496 2.23727,0.0345 0.14209,-1.31613 -0.10864,-2.53577 0.0267,-3.7457 -0.0378,-0.49185 0.3304,-0.91049 -0.14978,-1.21069 -1.27384,0.0457 -2.33985,-0.0539 -3.70653,0.0754 0.0215,1.55665 0.0136,3.1225 0.0463,4.64347 z"
         id="path4137"
         inkscape:connector-curvature="0"
         sodipodi:nodetypes="ccccccc" />
    </g>
    <g
       id="g5034"
       transform="matrix(1.2731275,0,0,1.2731275,-71.587446,-341.15768)">
      <path
         inkscape:connector-curvature="0"
         id="path4731-1"
         d="m 324.43771,461.94137 c -5.40109,1.11971 -11.33094,1.45788 -14.95555,5.08249 -0.34602,0.34602 -2.30742,0.23728 -2.76021,0.69006 -2.52287,2.52287 -6.09944,5.39612 -8.98394,8.28062 -1.75922,1.75923 -2.4617,4.54512 -4.14032,6.22374 -0.94613,0.94613 -3.76027,16.87126 -4.84363,17.95461 -1.30997,1.30998 -2.7602,7.56192 -2.7602,9.674 0,0.78116 -1.57653,2.26657 -2.07016,2.76021 -1.07572,1.07572 -1.26041,10.12467 -2.07015,11.74415 -0.37957,0.75915 1.11038,1.30479 0.51754,1.89765 -0.0493,0.0493 -0.0628,0.0737 -0.0796,0.0929 0.19226,-0.1625 1.04726,-0.98254 1.28721,-1.473 1.68951,-3.45325 11.40748,-15.04113 14.15934,-20.55558 3.05689,-6.12573 8.16306,-10.23322 13.12426,-15.19441 0.36753,-0.36754 4.40084,-2.76021 5.52041,-2.76021 1.02956,0 2.76021,2.40966 2.76021,1.3801 l 0,6.22374 c 0,3.99497 -0.82319,7.97022 -1.19432,11.5451 -0.76541,0.93381 -1.51557,2.06829 -2.25594,3.43699 -2.28846,11.05852 -3.8447,27.52014 -14.90247,35.63056 -2.84419,0.79066 -5.923,2.04635 -8.18773,3.45026 0.2178,0.0753 0.45249,0.15161 0.67678,0.2256 -0.20565,0.0674 -0.39753,0.13114 -0.61043,0.19905 -17.49004,-1.59034 -30.98145,1.89031 -30.65423,8.99721 0.0341,-0.12045 0.0857,-0.21837 0.15924,-0.29194 4.62293,-4.62292 13.52053,-7.44173 18.29965,-6.22374 1.61117,0.32224 6.96709,0.41159 7.24554,0.69005 1.65567,1.65567 6.55467,1.55884 8.98395,2.77348 8.77064,4.38532 20.06167,6.21047 30.73384,6.21047 1.6412,0 19.62002,-2.0104 20.02477,-2.41519 0.95531,-0.9553 3.60477,-1.79574 4.84367,-2.41517 1.44134,-0.72069 3.79646,-0.69125 4.83036,-1.72514 0.27558,-0.27562 1.36281,0.18116 1.7251,0 4.54126,-2.27061 14.5812,-1.7384 20.36979,-1.7384 2.77739,0 19.20284,1.32079 20.72814,2.08343 1.43329,0.71666 3.86975,1.10959 4.83036,2.07016 0.24194,0.24198 0.56842,0.80452 0.6635,0.76967 0.005,-0.008 0.0265,-0.0889 0.0265,-0.0796 0,0.0522 -0.009,0.0733 -0.0265,0.0796 -0.0362,0.0905 -0.26416,1.08829 -0.82274,2.24267 1.68578,-1.67642 2.16084,-3.61708 0.0796,-5.73274 -4.65344,-3.5714 -15.52683,-7.6431 -25.7841,-7.85598 -1.16906,-0.37416 -2.43684,-0.73057 -3.76871,-1.07489 -8.67259,-5.11522 -13.1794,-8.03277 -15.87122,-14.07971 -0.0655,-7.28435 -3.51747,-12.39246 -7.31188,-17.91481 0,-0.003 0,-0.0103 0,-0.0133 -0.13447,-1.24021 0.14863,-2.60886 -0.37159,-3.64931 -2.49109,-4.98225 -5.15343,-16.58024 -6.76781,-27.12434 -0.0173,-0.0183 -0.0352,-0.0354 -0.053,-0.0531 -0.17795,-0.17796 -0.0113,-0.98003 -0.2521,-1.22087 -0.58454,-0.58451 -1.08734,-1.21462 -1.65879,-1.85783 -0.4618,-1.39774 -0.95471,-2.93197 -1.61897,-3.59623 -0.62943,-0.62945 -1.67777,1.08242 -2.41515,0.34503 -0.0417,-0.0414 1.48813,-3.68723 0.34497,-4.83037 -2.30622,-2.30625 -5.50798,-3.76961 -7.94883,-6.21047 -1.43513,-1.43508 -5.29769,-1.35135 -6.79437,-2.66731 z"
         style="fill:#1254a2;fill-opacity:1;stroke:#ffffff;stroke-width:0.42464733px;stroke-linecap:butt;stroke-linejoin:miter;stroke-opacity:0" />
      <path
         inkscape:connector-curvature="0"
         id="path4909-2"
         d="m 344.67469,511.97549 c -5.22511,0.0613 -7.53527,3.27554 -11.13372,6.87398 -1.35746,1.35747 -0.67411,3.80321 -1.45968,5.37444 -3.18781,6.37561 6.85527,15.14527 10.74887,17.09206 3.3008,1.65041 5.89342,-1.473 8.78488,-1.473 3.77039,0 6.71951,-8.67021 5.37444,-7.32516 -0.26298,0.26298 -3.43305,0.50035 -3.9147,0.98199 -2.9489,2.94888 -8.86607,2.85154 -11.71761,0 -0.59713,-0.59711 -0.71212,-1.56849 -0.8626,-2.60096 -0.64003,-0.20449 -1.21818,-0.46182 -1.57916,-0.82276 -1.13948,-1.13951 0.17081,-4.71265 -0.96873,-5.85217 -0.14133,-0.14135 -0.87769,-2.546 0,-3.42372 1.07804,-1.078 2.02859,-4.4703 3.90145,-6.34316 1.26497,-1.26497 2.85149,-1.39177 3.90145,-2.44173 -0.37559,-0.0247 -0.72651,-0.0439 -1.07489,-0.0398 z"
         style="fill:#ffffff;fill-opacity:1;stroke:#ffffff;stroke-width:0.42464733px;stroke-linecap:butt;stroke-linejoin:miter;stroke-opacity:0" />
      <path
         sodipodi:nodetypes="ccccccccccccc"
         inkscape:connector-curvature="0"
         id="path4914-7"
         d="m 323.33556,512.47188 c -0.0178,0.0159 -0.0388,0.0343 -0.0448,0.0556 1.91121,4.77543 2.34176,1.84735 0.23191,4.63508 -3.01594,4.45814 0.40736,1.69983 2.87612,0.93399 0.97581,0.95617 2.55129,2.28333 3.58763,2.97297 0.7971,-0.75144 0.98716,-2.12229 -0.37494,-3.98519 1.44118,-0.72674 4.52033,-1.50836 4.53655,-1.5438 -1.12536,-0.9734 -3.93125,-0.84217 -4.46819,-1.60981 0.52244,-2.00528 0.49913,-2.96511 0.16779,-3.67531 -0.70272,0.29246 -0.96786,0.38715 -1.46585,1.20514 -0.25016,0.57314 -0.91247,0.92867 -1.4738,1.65109 -1.62666,-0.47991 -3.29377,-0.88727 -3.57244,-0.63983 z"
         style="fill:#ffffff;fill-opacity:1;stroke:#ffffff;stroke-width:0.42464733px;stroke-linecap:butt;stroke-linejoin:miter;stroke-opacity:0" />
      <path
         sodipodi:nodetypes="cccccccccccc"
         inkscape:connector-curvature="0"
         id="path5002-7"
         d="m 336.27746,505.71301 c -0.0368,0.82285 0.33638,1.84482 -0.35087,2.49393 -0.32588,0.37701 -1.69037,0.52649 -1.37428,1.04664 0.64214,0.10117 1.55164,-0.13467 1.92225,0.55085 -0.0921,0.48437 -0.28131,2.58286 0.35082,2.02452 0.35363,-0.40742 0.83675,-2.64466 1.62503,-2.28721 0.7184,0.28024 1.493,0.74064 2.2729,0.69604 -0.085,-0.58186 -0.92377,-0.85127 -1.34215,-1.26947 -0.74604,-0.61568 0.12625,-1.49704 0.51157,-2.05384 0.43433,-0.38557 0.41113,-0.87673 -0.22879,-0.55757 -0.66578,0.21546 -1.24479,0.86064 -1.97558,0.74317 -0.5933,-0.28865 -0.82945,-1.03269 -1.4109,-1.38706 z"
         style="fill:#ffffff;fill-opacity:1;stroke:#ffffff;stroke-width:0.38223806px;stroke-linecap:butt;stroke-linejoin:miter;stroke-opacity:0" />
      <path
         sodipodi:nodetypes="ccssssccccscscscssccscs"
         inkscape:connector-curvature="0"
         id="path5029-3"
         d="m 322.72035,527.73468 c 0.91213,0.37992 1.86289,0.41354 2.57749,0.74894 -0.068,0.51617 -0.19969,1.0062 -0.20651,1.55653 -0.009,0.72284 -0.19114,1.47623 -0.12356,1.47707 0.13303,0.002 0.56265,-0.0427 0.56336,-0.098 0.005,-0.37888 0.27368,-1.12355 0.53379,-1.55819 0.0389,-0.0649 0.29316,-0.46549 0.47782,-0.78873 0.68097,0.3202 1.35302,0.63676 1.98986,0.91981 0.80186,0.44307 0.68254,-0.20042 0.8169,-0.31302 -1.30045,-1.20183 -1.94026,-1.25494 -2.17722,-2.11179 0.62028,-0.51993 0.98733,-1.56324 1.63871,-2.10814 0.72776,-0.60882 -0.0417,-0.73729 -0.0503,-0.74495 -0.0753,-0.0663 -1.36833,0.9287 -1.56927,1.0971 -0.16021,0.13431 -0.33329,0.25896 -0.50789,0.37595 -0.31311,-0.52176 -0.95698,-1.45646 -1.09085,-1.69326 -0.04,-0.0704 -0.27915,-0.35195 -0.38013,-0.4875 -0.008,0.0622 -0.0487,0.14412 -0.0492,0.20056 l -0.0135,1.11632 c -0.006,0.52755 0.0645,1.06626 0.12067,1.6008 -2.12782,0.39557 -2.33352,0.81312 -2.54995,0.81046 z m 2.44644,-3.79912 c -0.009,-1.1e-4 0.0189,0.0238 0.046,0.0609 0,-0.0342 -0.008,-0.0605 -0.046,-0.0609 z"
         style="fill:#ffffff;fill-opacity:1;stroke:#ffffff;stroke-width:0.34716108px;stroke-linecap:butt;stroke-linejoin:miter;stroke-opacity:0" />
    </g>
  </g>
</svg>
